<svg preserveAspectRatio="none" width="100%" height="100%" overflow="visible" style="display: block;" viewBox="0 0 248.248 80" fill="none" xmlns="http://www.w3.org/2000/svg">
<g id="LOGO PS:DIGITAL">
<path id="Vector" d="M89.8906 25.9066H99.8777C101.913 25.8815 103.934 26.2478 105.831 26.9857C107.559 27.6558 109.134 28.6683 110.46 29.9625C111.748 31.231 112.761 32.7508 113.437 34.4276C114.154 36.1974 114.513 38.092 114.494 40.0016C114.511 41.9194 114.139 43.8207 113.4 45.5905C112.7 47.2672 111.67 48.7859 110.371 50.0557C109.043 51.3376 107.478 52.3486 105.764 53.0324C103.917 53.7645 101.946 54.1309 99.9595 54.1115H89.8906V25.9066ZM96.5883 32.1504V47.7784H99.6693C100.812 47.7958 101.946 47.5911 103.011 47.1756C103.965 46.8055 104.832 46.2403 105.556 45.5161C106.264 44.811 106.814 43.9638 107.171 43.0305C107.546 42.06 107.736 41.0274 107.729 39.9867C107.738 38.9333 107.557 37.8869 107.193 36.8983C106.843 35.9685 106.304 35.1219 105.608 34.4127C104.881 33.6853 104.009 33.1197 103.048 32.7532C101.931 32.3402 100.748 32.1383 99.5577 32.1578L96.5883 32.1504Z" fill="var(--fill-0, #004165)"/>
<path id="Vector_2" d="M119.741 25.9067H126.528V54.052H119.741V25.9067Z" fill="var(--fill-0, #004165)"/>
<path id="Vector_3" d="M146.464 54.4389C144.349 54.4708 142.249 54.0786 140.288 53.2854C138.562 52.5785 137 51.5257 135.697 50.1921C134.394 48.8585 133.378 47.2721 132.712 45.5309C132.029 43.7599 131.684 41.8771 131.692 39.9792C131.676 38.0244 132.043 36.0853 132.771 34.2713C133.448 32.5514 134.469 30.9874 135.77 29.6747C137.071 28.3619 138.626 27.328 140.34 26.6359C142.197 25.8747 144.189 25.4951 146.197 25.5196C148.638 25.4564 151.059 25.9849 153.251 27.0601C155.182 28.0566 156.871 29.4638 158.2 31.1829L152.567 35.1494C151.931 34.1255 151.034 33.2885 149.97 32.7234C148.803 32.1351 147.51 31.8437 146.204 31.875C145.157 31.8661 144.121 32.0765 143.16 32.4926C142.228 32.8889 141.383 33.4656 140.675 34.1894C139.955 34.9267 139.384 35.7959 138.993 36.7494C138.578 37.7726 138.371 38.8679 138.383 39.9718C138.364 41.0897 138.559 42.2009 138.956 43.2462C139.321 44.1978 139.878 45.0641 140.593 45.7914C141.31 46.5169 142.172 47.0825 143.123 47.4509C144.143 47.8464 145.229 48.0435 146.323 48.0314C147.773 48.0817 149.202 47.6756 150.409 46.8704C151.536 46.0797 152.374 44.9432 152.798 43.6332H144.998V37.3894H160.113V40.5895C160.12 42.4016 159.787 44.199 159.131 45.8881C158.15 48.4358 156.411 50.6212 154.148 52.149C151.886 53.6769 149.209 54.4735 146.479 54.4314L146.464 54.4389Z" fill="var(--fill-0, #004165)"/>
<path id="Vector_4" d="M165.396 25.9067H172.183V54.052H165.396V25.9067Z" fill="var(--fill-0, #004165)"/>
<path id="Vector_5" d="M185.139 32.1133H177.504V25.9067H199.249V32.1133H191.688V54.052H185.139V32.1133Z" fill="var(--fill-0, #004165)"/>
<path id="Vector_6" d="M208.388 25.9067H214.87L225.289 54.052H218.48L216.991 49.8474H206.23L204.742 54.052H197.955L208.388 25.9067ZM208.314 43.9906H214.945L211.626 34.5393L208.314 43.9906Z" fill="var(--fill-0, #004165)"/>
<path id="Vector_7" d="M229.211 25.9067H235.961V47.6148H248.248V54.052H229.211V25.9067Z" fill="var(--fill-0, #004165)"/>
<path id="Vector_8" d="M3.11785 55.4438L3.06577 55.3099C1.04189 50.4431 0 45.2243 0 39.9535C0 34.6827 1.04189 29.4638 3.06577 24.5971L3.11785 24.478L5.97556 25.7952L9.32443 27.2017C7.64685 31.2412 6.78328 35.5721 6.78328 39.946C6.78328 44.32 7.64685 48.6509 9.32443 52.6903L9.36163 52.787L6.21369 54.0447L3.11785 55.4438Z" fill="var(--fill-0, #00B3BE)"/>
<path id="Vector_9" d="M39.9852 79.9575C33.3552 79.9638 26.8283 78.3178 20.9943 75.1682C15.1603 72.0186 10.2031 67.4647 6.57094 61.9183L12.2417 58.1973C15.2597 62.802 19.3763 66.5832 24.2203 69.2C29.0642 71.8168 34.4833 73.187 39.9889 73.187C45.4945 73.187 50.9135 71.8168 55.7575 69.2C60.6015 66.5832 64.718 62.802 67.7361 58.1973C68.1082 57.6318 68.4356 57.1034 68.7333 56.5824C69.4448 55.3518 70.0761 54.0766 70.6236 52.7647L76.8822 55.3843C76.2238 56.9628 75.4631 58.4966 74.605 59.976C74.2329 60.6085 73.8608 61.2485 73.3994 61.9257C69.7663 67.4708 64.8088 72.0232 58.9749 75.1715C53.1409 78.3197 46.6144 79.9646 39.9852 79.9575Z" fill="var(--fill-0, #FECB00)"/>
<path id="Vector_10" d="M70.6236 27.2016C70.0776 25.889 69.4462 24.6137 68.7333 23.3839C68.4282 22.8555 68.1007 22.3271 67.7361 21.769C64.7171 17.1643 60.5999 13.3833 55.7553 10.7666C50.9108 8.14985 45.4912 6.77975 39.9852 6.77975C34.4791 6.77975 29.0596 8.14985 24.215 10.7666C19.3705 13.3833 15.2532 17.1643 12.2342 21.769L6.57094 18.048C10.206 12.5037 15.1636 7.95105 20.9967 4.80037C26.8299 1.64968 33.3555 0 39.9852 0C46.6149 0 53.1404 1.64968 58.9736 4.80037C64.8068 7.95105 69.7643 12.5037 73.3994 18.048C73.8384 18.7178 74.2329 19.3578 74.605 19.9904C75.4602 21.4739 76.2208 23.01 76.8822 24.5895L70.6236 27.2016Z" fill="var(--fill-0, #004165)"/>
<path id="Vector_11" d="M18.225 25.9065H29.4548C30.983 25.8856 32.5004 26.1663 33.92 26.7325C35.2018 27.239 36.3685 27.9983 37.3507 28.9651C38.3145 29.9125 39.0743 31.0471 39.5833 32.2991C40.6024 34.9095 40.6024 37.8078 39.5833 40.4182C39.088 41.6758 38.3467 42.822 37.4028 43.7894C36.4264 44.7836 35.2596 45.5708 33.9721 46.1039C32.5366 46.7002 30.9942 46.9965 29.4399 46.9746H24.9748V54.0295H18.225V25.9065ZM24.9748 31.994V40.7531H29.1423C29.7189 40.7703 30.2932 40.6732 30.8322 40.4676C31.3711 40.262 31.8641 39.9518 32.2827 39.555C32.7014 39.145 33.0291 38.6516 33.2445 38.1066C33.4599 37.5617 33.5582 36.9776 33.533 36.3922C33.5575 35.8046 33.459 35.2184 33.2437 34.6712C33.0284 34.1239 32.7011 33.6278 32.2827 33.2145C31.8674 32.8115 31.3755 32.4959 30.8361 32.2863C30.2967 32.0767 29.7207 31.9773 29.1423 31.994H24.9748Z" fill="var(--fill-0, #004165)"/>
<path id="Vector_12" d="M53.269 54.439C51.8511 54.4547 50.4358 54.3125 49.0494 54.0148C47.876 53.7575 46.737 53.3628 45.6559 52.839C44.6711 52.359 43.7509 51.7564 42.9173 51.0455C42.1109 50.3661 41.364 49.6192 40.6847 48.8129L46.4671 44.1914C47.2144 45.3725 48.2162 46.3718 49.3992 47.1161C50.6358 47.8411 52.052 48.2023 53.4848 48.158C54.4204 48.2229 55.3493 47.9597 56.1118 47.4138C56.395 47.1882 56.6222 46.9002 56.7758 46.5723C56.9294 46.2445 57.0053 45.8855 56.9974 45.5236C57.0115 45.111 56.8885 44.7053 56.6476 44.3701C56.3606 44.0145 55.9898 43.7358 55.5685 43.5589C54.9852 43.2941 54.3802 43.0799 53.7602 42.9189C53.016 42.7254 52.175 42.517 51.1704 42.2863C50.117 42.0486 49.0763 41.758 48.0522 41.4156C47.031 41.0911 46.0668 40.609 45.1945 39.9868C44.3367 39.3734 43.6251 38.578 43.1108 37.6574C42.5381 36.551 42.2613 35.3154 42.307 34.0704C42.2885 32.8849 42.5432 31.711 43.0512 30.6397C43.5612 29.59 44.2834 28.6575 45.1722 27.9011C46.1259 27.0972 47.2248 26.4833 48.4094 26.0927C49.7517 25.6402 51.1605 25.4163 52.5769 25.4304C53.7558 25.4214 54.9326 25.5311 56.0895 25.7578C57.0942 25.9641 58.071 26.2889 58.9993 26.7253C59.8916 27.1557 60.7329 27.6849 61.5072 28.303C62.3199 28.9635 63.0857 29.6797 63.7993 30.4462L58.4783 34.6584C57.8685 33.6641 57.0353 32.8258 56.0448 32.21C54.9652 31.5962 53.7361 31.2948 52.495 31.3393C51.5829 31.2546 50.6728 31.5208 49.9499 32.0835C49.702 32.3001 49.5024 32.5664 49.3639 32.8651C49.2255 33.1638 49.1513 33.4882 49.1462 33.8174C49.1371 34.0162 49.168 34.2148 49.237 34.4014C49.3061 34.588 49.4118 34.7589 49.548 34.9039C49.8726 35.2344 50.2666 35.4886 50.7015 35.6481C51.2948 35.8671 51.9013 36.0485 52.5173 36.1914L54.8467 36.7495C55.9034 36.9802 56.9676 37.2705 58.0541 37.6128C59.1166 37.9539 60.1205 38.4558 61.0309 39.1012C61.9225 39.7389 62.6663 40.5613 63.2114 41.5124C63.8151 42.657 64.1077 43.9401 64.0598 45.2333C64.0712 46.5044 63.7938 47.7614 63.2486 48.9096C62.7128 50.0251 61.9528 51.0182 61.016 51.8269C60.0164 52.6774 58.865 53.3313 57.6225 53.7543C56.2218 54.2324 54.7488 54.464 53.269 54.439V54.439Z" fill="var(--fill-0, #004165)"/>
<path id="Vector_13" d="M76.175 48.7759C78.0492 48.7759 79.5685 47.2565 79.5685 45.3824C79.5685 43.5082 78.0492 41.9888 76.175 41.9888C74.3008 41.9888 72.7815 43.5082 72.7815 45.3824C72.7815 47.2565 74.3008 48.7759 76.175 48.7759Z" fill="var(--fill-0, #00B3BE)"/>
<path id="Vector_14" d="M76.175 37.9628C78.0492 37.9628 79.5685 36.4434 79.5685 34.5693C79.5685 32.6951 78.0492 31.1757 76.175 31.1757C74.3008 31.1757 72.7815 32.6951 72.7815 34.5693C72.7815 36.4434 74.3008 37.9628 76.175 37.9628Z" fill="var(--fill-0, #00B3BE)"/>
</g>
</svg>
